<?xml version="1.0" encoding="utf-8"?>
<!-- Generator: Adobe Illustrator 25.0.1, SVG Export Plug-In . SVG Version: 6.00 Build 0)  -->
<svg version="1.1" id="Layer_1" xmlns="http://www.w3.org/2000/svg" xmlns:xlink="http://www.w3.org/1999/xlink" x="0px" y="0px"
	 viewBox="0 0 392 127" style="enable-background:new 0 0 392 127;" xml:space="preserve">
<style type="text/css">
	.st0{fill:#F68E49;}
	.st1{fill:#F27321;}
	.st2{enable-background:new    ;}
	.st3{fill:#2A353C;}
</style>
<g>
	<g>
		<g>
			<g>
				<rect x="41.7" y="45.2" class="st0" width="7" height="7"/>
				<rect x="41.7" y="55.2" class="st0" width="7" height="7"/>
				<path class="st0" d="M22.5,60.5l-8.1,6.1c12.1,26.7,36,60.1,36,60.1l0,0V76C39.7,76,29,70.8,22.5,60.5z"/>
				<path class="st0" d="M50.4,10.4L50.4,10.4V0.3l0,0C26.7,0.3,7.5,19.5,7.5,43.2c0,5.3,2.2,12,4.2,17L0.4,72.1
					c25.4-19.1,15-11.3,49.9-37.9l0.1,0.1V19l-0.1-0.1L19,52.5C12.7,31.5,28.5,10.4,50.4,10.4z"/>
			</g>
			<g>
				<rect x="52" y="45.2" class="st1" width="7" height="7"/>
				<rect x="52" y="55.2" class="st1" width="7" height="7"/>
				<path class="st1" d="M78.6,59.9C72.3,70.6,61.3,76,50.4,76v50.7c0,0,24.3-33.9,36.3-60.8L78.6,59.9z"/>
				<path class="st1" d="M89.4,59.5c1.8-4.8,3.9-11.1,3.9-16.3c0-23.7-19.2-42.9-42.9-42.9v10.1C72,10.4,87.7,30.9,82,51.7
					L70.2,39.3V25.9h-6.9V32L50.4,19v15.3C85.8,60,75.3,52.4,100.4,71L89.4,59.5z"/>
			</g>
		</g>
	</g>
	<g>
		<g class="st2">
			<path class="st3" d="M126.3,47.5h13.5v19.5c-2.2,0.8-4.3,1.3-6.4,1.6c-2,0.3-4.2,0.5-6.6,0.5c-5.6,0-9.8-1.7-12.9-5.2
				c-3-3.5-4.5-8.4-4.5-14.8c0-6.3,1.7-11.2,5.1-14.7s8.1-5.3,14-5.3c3.8,0,7.5,0.8,10.9,2.3l-2.1,5.3c-3-1.5-6-2.2-8.9-2.2
				c-3.9,0-7,1.3-9.3,3.9c-2.3,2.6-3.4,6.2-3.4,10.7c0,4.8,1,8.4,3.1,10.8s5,3.7,8.9,3.7c1.9,0,4-0.3,6.2-0.8V53h-7.6V47.5z"/>
			<path class="st3" d="M155.9,68.7H150V27.2h5.9V68.7z"/>
			<path class="st3" d="M190.9,53.9c0,4.8-1.2,8.6-3.5,11.3s-5.6,4-9.7,4c-2.6,0-4.9-0.6-6.9-1.9s-3.5-3-4.6-5.4
				c-1.1-2.3-1.6-5-1.6-8.1c0-4.8,1.2-8.5,3.5-11.2c2.3-2.7,5.6-4,9.8-4c4,0,7.2,1.4,9.5,4.1C189.7,45.5,190.9,49.2,190.9,53.9z
				 M170.7,53.9c0,6.8,2.4,10.2,7.1,10.2c4.7,0,7-3.4,7-10.2c0-6.7-2.4-10.1-7.1-10.1c-2.5,0-4.3,0.9-5.4,2.6
				C171.2,48.1,170.7,50.6,170.7,53.9z"/>
		</g>
		<g class="st2">
			<path class="st1" d="M202.1,29.7H213c5.1,0,8.7,0.8,11,2.3c2.3,1.6,3.4,4,3.4,7.4c0,2.3-0.6,4.2-1.7,5.7
				c-1.1,1.5-2.7,2.5-4.8,2.8v0.3c2.6,0.5,4.5,1.5,5.7,3s1.8,3.6,1.8,6.2c0,3.5-1.2,6.2-3.5,8.2c-2.3,2-5.5,3-9.6,3h-13.3V29.7z
				 M208.1,45.8h5.8c2.5,0,4.3-0.4,5.5-1.3c1.2-0.8,1.7-2.3,1.7-4.3c0-1.8-0.6-3.1-1.9-4c-1.2-0.8-3.2-1.2-5.9-1.2h-5.2V45.8z
				 M208.1,51v12.3h6.4c2.5,0,4.4-0.5,5.7-1.5c1.3-1,1.9-2.6,1.9-4.8c0-2-0.7-3.5-2-4.5c-1.3-1-3.3-1.5-6-1.5H208.1z"/>
			<path class="st1" d="M249.5,69.2c-4.3,0-7.7-1.3-10.1-4c-2.4-2.7-3.7-6.3-3.7-11c0-4.8,1.1-8.6,3.4-11.3c2.3-2.8,5.4-4.1,9.3-4.1
				c3.7,0,6.6,1.2,8.7,3.5c2.1,2.4,3.2,5.6,3.2,9.7v3.4h-18.5c0.1,2.9,0.8,5.1,2.2,6.6c1.4,1.5,3.3,2.3,5.8,2.3
				c1.6,0,3.2-0.2,4.6-0.5c1.4-0.3,2.9-0.9,4.6-1.6v5.1c-1.4,0.7-2.9,1.2-4.4,1.5C253.1,69,251.4,69.2,249.5,69.2z M248.4,43.4
				c-1.9,0-3.4,0.6-4.5,1.9c-1.1,1.3-1.8,3.1-2,5.5h12.6c0-2.4-0.6-4.3-1.7-5.5S250.3,43.4,248.4,43.4z"/>
		</g>
		<g class="st2">
			<path class="st3" d="M294.6,68.7h-5.9V50.6c0-2.3-0.4-4-1.3-5.1c-0.9-1.1-2.2-1.7-4.1-1.7c-2.5,0-4.3,0.8-5.5,2.3
				s-1.7,4.2-1.7,7.9v14.7h-5.9V39.2h4.6l0.8,3.9h0.3c0.8-1.4,2-2.5,3.6-3.2c1.5-0.8,3.2-1.1,5.1-1.1c6.7,0,10,3.6,10,10.8V68.7z"/>
			<path class="st3" d="M316.9,69.2c-4.3,0-7.7-1.3-10.1-4c-2.4-2.7-3.7-6.3-3.7-11c0-4.8,1.1-8.6,3.4-11.3c2.3-2.8,5.4-4.1,9.3-4.1
				c3.7,0,6.6,1.2,8.7,3.5c2.1,2.4,3.2,5.6,3.2,9.7v3.4h-18.5c0.1,2.9,0.8,5.1,2.2,6.6c1.4,1.5,3.3,2.3,5.8,2.3
				c1.6,0,3.2-0.2,4.6-0.5c1.4-0.3,2.9-0.9,4.6-1.6v5.1c-1.4,0.7-2.9,1.2-4.4,1.5C320.5,69,318.8,69.2,316.9,69.2z M315.8,43.4
				c-1.9,0-3.4,0.6-4.5,1.9c-1.1,1.3-1.8,3.1-2,5.5h12.6c0-2.4-0.6-4.3-1.7-5.5S317.7,43.4,315.8,43.4z"/>
			<path class="st3" d="M355,60.3c0,2.9-1,5.1-3,6.6c-2,1.5-4.8,2.3-8.5,2.3c-3.7,0-6.7-0.6-8.9-1.8V62c3.3,1.6,6.3,2.4,9.1,2.4
				c3.6,0,5.4-1.2,5.4-3.5c0-0.7-0.2-1.4-0.6-1.9c-0.4-0.5-1.1-1-2-1.5c-0.9-0.5-2.2-1.1-3.8-1.8c-3.2-1.3-5.4-2.6-6.5-3.9
				c-1.1-1.3-1.7-3-1.7-5.1c0-2.5,1-4.5,2.9-5.9c1.9-1.4,4.5-2.1,7.8-2.1c3.3,0,6.4,0.7,9.3,2.1l-1.9,4.7c-3-1.3-5.5-2-7.6-2
				c-3.1,0-4.7,0.9-4.7,2.8c0,0.9,0.4,1.7,1.2,2.3c0.8,0.6,2.6,1.5,5.3,2.6c2.3,0.9,4,1.8,5,2.6c1,0.8,1.8,1.7,2.3,2.7
				C354.8,57.6,355,58.9,355,60.3z"/>
			<path class="st3" d="M373.7,64.1c1.4,0,2.9-0.2,4.3-0.7v4.7c-0.7,0.3-1.5,0.6-2.5,0.8c-1,0.2-2.1,0.3-3.2,0.3
				c-5.6,0-8.4-3.1-8.4-9.4V44h-3.8v-2.8l4.1-2.3l2-6.2h3.6v6.5h7.9V44h-7.9v15.8c0,1.5,0.4,2.6,1.1,3.3S372.5,64.1,373.7,64.1z"/>
		</g>
		<g class="st2">
			<path class="st3" d="M107.2,93.8l3.2-6.4h1.5l-4,7.8v5h-1.4v-4.9l-4-7.9h1.5L107.2,93.8z"/>
			<path class="st3" d="M124.2,95.4c0,1.6-0.4,2.8-1.1,3.7c-0.7,0.9-1.8,1.3-3.1,1.3c-0.8,0-1.5-0.2-2.2-0.6c-0.6-0.4-1.1-1-1.5-1.7
				c-0.3-0.8-0.5-1.6-0.5-2.6c0-1.6,0.4-2.8,1.1-3.7c0.7-0.9,1.8-1.3,3.1-1.3c1.3,0,2.3,0.4,3,1.3C123.8,92.6,124.2,93.9,124.2,95.4
				z M117.3,95.4c0,1.2,0.2,2.2,0.7,2.8c0.5,0.6,1.1,1,2,1c0.9,0,1.6-0.3,2-1c0.5-0.6,0.7-1.6,0.7-2.8c0-1.2-0.2-2.2-0.7-2.8
				c-0.5-0.6-1.2-1-2.1-1c-0.9,0-1.6,0.3-2,0.9C117.5,93.2,117.3,94.1,117.3,95.4z"/>
			<path class="st3" d="M130.9,90.6v6.2c0,0.8,0.2,1.4,0.5,1.8c0.3,0.4,0.9,0.6,1.6,0.6c0.9,0,1.6-0.3,2.1-0.8
				c0.4-0.5,0.7-1.4,0.7-2.7v-5.1h1.4v9.6H136l-0.2-1.3h-0.1c-0.3,0.5-0.7,0.8-1.2,1.1c-0.5,0.3-1.1,0.4-1.7,0.4
				c-1.1,0-1.9-0.3-2.5-0.8c-0.5-0.6-0.8-1.4-0.8-2.7v-6.3H130.9z"/>
			<path class="st3" d="M147.2,90.4c0.4,0,0.8,0,1.1,0.1l-0.2,1.4c-0.4-0.1-0.7-0.1-1-0.1c-0.7,0-1.4,0.3-1.9,0.9
				c-0.5,0.6-0.8,1.4-0.8,2.4v5.2H143v-9.6h1.1l0.2,1.8h0.1c0.3-0.6,0.7-1.1,1.2-1.4S146.6,90.4,147.2,90.4z"/>
			<path class="st3" d="M165.9,93.5h4.1v6.2c-0.6,0.2-1.3,0.4-2,0.5c-0.7,0.1-1.4,0.2-2.3,0.2c-1.8,0-3.3-0.6-4.3-1.7
				s-1.5-2.8-1.5-4.9c0-1.3,0.3-2.5,0.8-3.5s1.2-1.8,2.2-2.3c0.9-0.5,2.1-0.8,3.3-0.8c1.3,0,2.5,0.3,3.6,0.8l-0.5,1.3
				c-1.1-0.5-2.1-0.7-3.2-0.7c-1.5,0-2.6,0.5-3.5,1.4s-1.2,2.2-1.2,3.9c0,1.7,0.4,3,1.2,3.9s2,1.3,3.5,1.3c0.8,0,1.7-0.1,2.5-0.3
				v-3.9h-2.7V93.5z"/>
			<path class="st3" d="M177,100.2h-1.4V86.5h1.4V100.2z"/>
			<path class="st3" d="M190.8,95.4c0,1.6-0.4,2.8-1.1,3.7c-0.7,0.9-1.8,1.3-3.1,1.3c-0.8,0-1.5-0.2-2.2-0.6c-0.6-0.4-1.1-1-1.5-1.7
				c-0.3-0.8-0.5-1.6-0.5-2.6c0-1.6,0.4-2.8,1.1-3.7c0.7-0.9,1.8-1.3,3.1-1.3c1.3,0,2.3,0.4,3,1.3C190.4,92.6,190.8,93.9,190.8,95.4
				z M183.9,95.4c0,1.2,0.2,2.2,0.7,2.8c0.5,0.6,1.1,1,2,1c0.9,0,1.6-0.3,2-1c0.5-0.6,0.7-1.6,0.7-2.8c0-1.2-0.2-2.2-0.7-2.8
				c-0.5-0.6-1.2-1-2.1-1c-0.9,0-1.6,0.3-2,0.9C184.1,93.2,183.9,94.1,183.9,95.4z"/>
			<path class="st3" d="M200.4,90.4c1.2,0,2.1,0.4,2.8,1.3s1,2.1,1,3.7c0,1.6-0.3,2.8-1,3.7c-0.7,0.9-1.6,1.3-2.8,1.3
				c-0.6,0-1.1-0.1-1.6-0.3c-0.5-0.2-0.9-0.6-1.2-1.1h-0.1l-0.3,1.2h-1V86.5h1.4v3.3c0,0.7,0,1.4-0.1,2h0.1
				C198.2,90.9,199.1,90.4,200.4,90.4z M200.2,91.6c-0.9,0-1.6,0.3-2,0.9c-0.4,0.6-0.6,1.5-0.6,2.9s0.2,2.3,0.6,2.9s1.1,0.9,2,0.9
				c0.8,0,1.5-0.3,1.9-1c0.4-0.7,0.6-1.6,0.6-2.8c0-1.3-0.2-2.2-0.6-2.8C201.7,92,201.1,91.6,200.2,91.6z"/>
			<path class="st3" d="M215.1,100.2l-0.3-1.4h-0.1c-0.5,0.6-0.9,1-1.4,1.2c-0.5,0.2-1,0.3-1.7,0.3c-0.9,0-1.6-0.2-2.1-0.7
				s-0.8-1.2-0.8-2.1c0-1.9,1.5-3,4.4-3.1l1.5-0.1v-0.6c0-0.8-0.2-1.3-0.5-1.7c-0.3-0.4-0.8-0.5-1.5-0.5c-0.8,0-1.6,0.2-2.6,0.7
				l-0.4-1.1c0.4-0.3,0.9-0.5,1.5-0.6c0.5-0.1,1.1-0.2,1.6-0.2c1.1,0,1.9,0.3,2.4,0.8c0.5,0.5,0.8,1.3,0.8,2.4v6.6H215.1z M212,99.2
				c0.9,0,1.5-0.2,2-0.7s0.7-1.2,0.7-2.1v-0.9l-1.4,0.1c-1.1,0-1.9,0.2-2.4,0.5c-0.5,0.3-0.7,0.8-0.7,1.5c0,0.5,0.2,0.9,0.5,1.2
				C211.1,99,211.5,99.2,212,99.2z"/>
			<path class="st3" d="M223.4,100.2H222V86.5h1.4V100.2z"/>
			<path class="st3" d="M242.1,88.5c-1.3,0-2.4,0.5-3.1,1.4c-0.8,0.9-1.2,2.2-1.2,3.9c0,1.7,0.4,3,1.1,3.9c0.7,0.9,1.8,1.4,3.2,1.4
				c0.8,0,1.8-0.2,2.9-0.5v1.3c-0.8,0.3-1.9,0.5-3.1,0.5c-1.8,0-3.2-0.6-4.1-1.7c-1-1.1-1.5-2.8-1.5-4.9c0-1.3,0.2-2.5,0.7-3.5
				c0.5-1,1.1-1.8,2-2.3c0.9-0.5,1.9-0.8,3.1-0.8c1.3,0,2.4,0.2,3.3,0.7l-0.6,1.3C243.9,88.7,243,88.5,242.1,88.5z"/>
			<path class="st3" d="M258.2,95.4c0,1.6-0.4,2.8-1.1,3.7c-0.7,0.9-1.8,1.3-3.1,1.3c-0.8,0-1.5-0.2-2.2-0.6c-0.6-0.4-1.1-1-1.5-1.7
				c-0.3-0.8-0.5-1.6-0.5-2.6c0-1.6,0.4-2.8,1.1-3.7c0.7-0.9,1.8-1.3,3.1-1.3c1.3,0,2.3,0.4,3,1.3C257.8,92.6,258.2,93.9,258.2,95.4
				z M251.3,95.4c0,1.2,0.2,2.2,0.7,2.8c0.5,0.6,1.1,1,2,1c0.9,0,1.6-0.3,2-1c0.5-0.6,0.7-1.6,0.7-2.8c0-1.2-0.2-2.2-0.7-2.8
				c-0.5-0.6-1.2-1-2.1-1c-0.9,0-1.6,0.3-2,0.9C251.5,93.2,251.3,94.1,251.3,95.4z"/>
			<path class="st3" d="M269.4,100.2h-6.6v-1l4.9-7.5h-4.6v-1.1h6.1v1.1l-4.9,7.3h5V100.2z"/>
			<path class="st3" d="M273.1,90.6h1.5l2,5.5c0.4,1.3,0.7,2.2,0.8,2.7h0.1c0.1-0.3,0.2-0.8,0.5-1.5c0.2-0.7,1-2.9,2.2-6.7h1.5
				l-3.9,10.9c-0.4,1.1-0.8,1.8-1.4,2.3c-0.5,0.5-1.1,0.7-1.9,0.7c-0.4,0-0.8,0-1.2-0.1v-1.2c0.3,0.1,0.6,0.1,1,0.1
				c0.9,0,1.6-0.6,2-1.7l0.5-1.4L273.1,90.6z"/>
			<path class="st3" d="M295.1,94.9v5.3h-1.4V87.4h3.3c1.5,0,2.6,0.3,3.3,0.9c0.7,0.6,1.1,1.5,1.1,2.7c0,1.7-0.8,2.8-2.4,3.4
				l3.3,5.8h-1.7l-2.9-5.3H295.1z M295.1,93.6h1.9c1,0,1.7-0.2,2.2-0.6c0.5-0.4,0.7-1,0.7-1.9c0-0.8-0.2-1.5-0.7-1.8
				s-1.2-0.6-2.3-0.6h-1.8V93.6z"/>
			<path class="st3" d="M310.8,100.4c-1.3,0-2.4-0.4-3.2-1.3c-0.8-0.9-1.2-2.1-1.2-3.6c0-1.5,0.4-2.8,1.1-3.7s1.7-1.4,2.9-1.4
				c1.1,0,2,0.4,2.7,1.2s1,1.8,1,3.1v0.9h-6.2c0,1.1,0.3,2,0.8,2.6c0.5,0.6,1.2,0.9,2.2,0.9c1,0,1.9-0.2,2.9-0.6v1.3
				c-0.5,0.2-0.9,0.4-1.4,0.5C311.9,100.3,311.4,100.4,310.8,100.4z M310.4,91.6c-0.7,0-1.3,0.3-1.7,0.8s-0.7,1.2-0.8,2.1h4.7
				c0-0.9-0.2-1.6-0.6-2.1C311.7,91.9,311.1,91.6,310.4,91.6z"/>
			<path class="st3" d="M322.4,99.2c0.2,0,0.5,0,0.7-0.1c0.2,0,0.4-0.1,0.5-0.1v1.1c-0.1,0.1-0.4,0.1-0.7,0.2
				c-0.3,0-0.5,0.1-0.8,0.1c-1.8,0-2.6-1-2.6-2.9v-5.7h-1.3V91l1.3-0.6l0.6-2.1h0.8v2.2h2.6v1.1h-2.6v5.7c0,0.6,0.1,1,0.4,1.3
				C321.6,99,321.9,99.2,322.4,99.2z"/>
			<path class="st3" d="M332.6,90.4c0.4,0,0.8,0,1.1,0.1l-0.2,1.4c-0.4-0.1-0.7-0.1-1-0.1c-0.7,0-1.4,0.3-1.9,0.9
				c-0.5,0.6-0.8,1.4-0.8,2.4v5.2h-1.4v-9.6h1.1l0.2,1.8h0.1c0.3-0.6,0.7-1.1,1.2-1.4S332,90.4,332.6,90.4z"/>
			<path class="st3" d="M342.2,100.4c-1.3,0-2.4-0.4-3.2-1.3c-0.8-0.9-1.2-2.1-1.2-3.6c0-1.5,0.4-2.8,1.1-3.7s1.7-1.4,2.9-1.4
				c1.1,0,2,0.4,2.7,1.2s1,1.8,1,3.1v0.9h-6.2c0,1.1,0.3,2,0.8,2.6c0.5,0.6,1.2,0.9,2.2,0.9c1,0,1.9-0.2,2.9-0.6v1.3
				c-0.5,0.2-0.9,0.4-1.4,0.5C343.3,100.3,342.8,100.4,342.2,100.4z M341.8,91.6c-0.7,0-1.3,0.3-1.7,0.8s-0.7,1.2-0.8,2.1h4.7
				c0-0.9-0.2-1.6-0.6-2.1C343.1,91.9,342.5,91.6,341.8,91.6z"/>
			<path class="st3" d="M356.4,100.2l-0.3-1.4h-0.1c-0.5,0.6-0.9,1-1.4,1.2c-0.5,0.2-1,0.3-1.7,0.3c-0.9,0-1.6-0.2-2.1-0.7
				s-0.8-1.2-0.8-2.1c0-1.9,1.5-3,4.4-3.1l1.5-0.1v-0.6c0-0.8-0.2-1.3-0.5-1.7c-0.3-0.4-0.8-0.5-1.5-0.5c-0.8,0-1.6,0.2-2.6,0.7
				l-0.4-1.1c0.4-0.3,0.9-0.5,1.5-0.6c0.5-0.1,1.1-0.2,1.6-0.2c1.1,0,1.9,0.3,2.4,0.8c0.5,0.5,0.8,1.3,0.8,2.4v6.6H356.4z
				 M353.3,99.2c0.9,0,1.5-0.2,2-0.7s0.7-1.2,0.7-2.1v-0.9l-1.4,0.1c-1.1,0-1.9,0.2-2.4,0.5c-0.5,0.3-0.7,0.8-0.7,1.5
				c0,0.5,0.2,0.9,0.5,1.2C352.4,99,352.8,99.2,353.3,99.2z"/>
			<path class="st3" d="M366.2,99.2c0.2,0,0.5,0,0.7-0.1c0.2,0,0.4-0.1,0.5-0.1v1.1c-0.1,0.1-0.4,0.1-0.7,0.2
				c-0.3,0-0.5,0.1-0.8,0.1c-1.8,0-2.6-1-2.6-2.9v-5.7h-1.3V91l1.3-0.6l0.6-2.1h0.8v2.2h2.6v1.1h-2.6v5.7c0,0.6,0.1,1,0.4,1.3
				C365.4,99,365.7,99.2,366.2,99.2z"/>
			<path class="st3" d="M378.1,97.6c0,0.9-0.3,1.6-0.9,2.1s-1.5,0.7-2.6,0.7c-1.2,0-2.1-0.2-2.8-0.6v-1.4c0.4,0.2,0.9,0.4,1.4,0.6
				c0.5,0.1,1,0.2,1.4,0.2c0.7,0,1.3-0.1,1.7-0.4c0.4-0.2,0.6-0.6,0.6-1.1c0-0.4-0.2-0.7-0.5-1c-0.3-0.3-0.9-0.6-1.8-0.9
				c-0.8-0.3-1.4-0.6-1.8-0.9c-0.4-0.2-0.6-0.5-0.8-0.8c-0.2-0.3-0.3-0.7-0.3-1.1c0-0.8,0.3-1.4,0.9-1.9c0.6-0.5,1.4-0.7,2.5-0.7
				c1,0,1.9,0.2,2.9,0.6l-0.5,1.2c-0.9-0.4-1.7-0.6-2.5-0.6c-0.7,0-1.1,0.1-1.5,0.3c-0.3,0.2-0.5,0.5-0.5,0.9c0,0.3,0.1,0.5,0.2,0.7
				c0.1,0.2,0.3,0.4,0.6,0.5c0.3,0.2,0.8,0.4,1.6,0.7c1.1,0.4,1.8,0.8,2.2,1.3C377.9,96.4,378.1,96.9,378.1,97.6z"/>
		</g>
	</g>
</g>
</svg>
